# xmcd
#
# Track frame offsets:
#	150
#	13275
#	46200
#	65512
#	92287
#
# Disc length: 1719 seconds
# Revision: 0
# Processed by: cddbd v1.5.2PL0 Copyright (c) Steve Scherf et al.
# Submitted via: dBpowerAMP V12.0
#
DISCID=3606b505
DTITLE=Chris Wilson - Alimony Blues
DYEAR=1992
DGENRE=Blues
TTITLE0=Alimony Blues
TTITLE1=When the Levee Breaks, Burning Hell
TTITLE2=Wreckage
TTITLE3=Born Under a Bad Sign
TTITLE4=Thank You (Fallettinme be Mice Elf Agin), Shotgun
EXTD=
EXTT0=
EXTT1=
EXTT2=
EXTT3=
EXTT4=
PLAYORDER=
